<?xml version="1.0" encoding="UTF-8" standalone="no"?>
<svg
   xmlns:dc="http://purl.org/dc/elements/1.1/"
   xmlns:cc="http://creativecommons.org/ns#"
   xmlns:rdf="http://www.w3.org/1999/02/22-rdf-syntax-ns#"
   xmlns:svg="http://www.w3.org/2000/svg"
   xmlns="http://www.w3.org/2000/svg"
   xmlns:sodipodi="http://sodipodi.sourceforge.net/DTD/sodipodi-0.dtd"
   xmlns:inkscape="http://www.inkscape.org/namespaces/inkscape"
   width="24"
   height="24"
   viewBox="0 0 24 24"
   fill="none"
   version="1.1"
   id="svg8270"
   sodipodi:docname="book_white.svg"
   inkscape:export-filename="/home/laura/Documentos/Escola4.0/Exelearning/web3/theme/img/book.png"
   inkscape:export-xdpi="96"
   inkscape:export-ydpi="96"
   inkscape:version="0.92.5 (2060ec1f9f, 2020-04-08)">
  <metadata
     id="metadata8276">
    <rdf:RDF>
      <cc:Work
         rdf:about="">
        <dc:format>image/svg+xml</dc:format>
        <dc:type
           rdf:resource="http://purl.org/dc/dcmitype/StillImage" />
        <dc:title></dc:title>
      </cc:Work>
    </rdf:RDF>
  </metadata>
  <defs
     id="defs8274" />
  <sodipodi:namedview
     pagecolor="#ffffff"
     bordercolor="#666666"
     borderopacity="1"
     objecttolerance="10"
     gridtolerance="10"
     guidetolerance="10"
     inkscape:pageopacity="0"
     inkscape:pageshadow="2"
     inkscape:window-width="1920"
     inkscape:window-height="1043"
     id="namedview8272"
     showgrid="false"
     inkscape:zoom="9.8333333"
     inkscape:cx="6.1525424"
     inkscape:cy="12"
     inkscape:window-x="0"
     inkscape:window-y="0"
     inkscape:window-maximized="1"
     inkscape:current-layer="svg8270" />
  <path
     d="M21 4C19.89 3.65 18.67 3.5 17.5 3.5C15.55 3.5 13.45 3.9 12 5C10.55 3.9 8.45 3.5 6.5 3.5C4.55 3.5 2.45 3.9 1 5V19.65C1 19.9 1.25 20.15 1.5 20.15C1.6 20.15 1.65 20.1 1.75 20.1C3.1 19.45 5.05 19 6.5 19C8.45 19 10.55 19.4 12 20.5C13.35 19.65 15.8 19 17.5 19C19.15 19 20.85 19.3 22.25 20.05C22.35 20.1 22.4 20.1 22.5 20.1C22.75 20.1 23 19.85 23 19.6V5C22.4 4.55 21.75 4.25 21 4ZM21 17.5C19.9 17.15 18.7 17 17.5 17C15.8 17 13.35 17.65 12 18.5V7C13.35 6.15 15.8 5.5 17.5 5.5C18.7 5.5 19.9 5.65 21 6V17.5Z"
     fill="#1D1D1D"
     id="path8262"
     inkscape:export-xdpi="96"
     inkscape:export-ydpi="96"
     style="fill:#ffffff;fill-opacity:1;stroke:#000000;stroke-opacity:1;opacity:1;stroke-width:0.2;stroke-miterlimit:4;stroke-dasharray:none" />
  <path
     d="M17.5 9.5C18.38 9.5 19.23 9.59 20 9.76V8.24C19.21 8.09 18.36 8 17.5 8C15.8 8 14.26 8.29 13 8.83V10.49C14.13 9.85 15.7 9.5 17.5 9.5Z"
     fill="#1D1D1D"
     id="path8264"
     inkscape:export-xdpi="96"
     inkscape:export-ydpi="96"
     style="fill:#ffffff;fill-opacity:1;stroke:#000000;stroke-opacity:1;opacity:1;stroke-width:0.2;stroke-miterlimit:4;stroke-dasharray:none" />
  <path
     d="M13 11.49V13.15C14.13 12.51 15.7 12.16 17.5 12.16C18.38 12.16 19.23 12.25 20 12.42V10.9C19.21 10.75 18.36 10.66 17.5 10.66C15.8 10.66 14.26 10.96 13 11.49Z"
     fill="#1D1D1D"
     id="path8266"
     inkscape:export-xdpi="96"
     inkscape:export-ydpi="96"
     style="fill:#ffffff;fill-opacity:1;stroke:#000000;stroke-opacity:1;opacity:1;stroke-width:0.2;stroke-miterlimit:4;stroke-dasharray:none" />
  <path
     d="M17.5 13.33C15.8 13.33 14.26 13.62 13 14.16V15.82C14.13 15.18 15.7 14.83 17.5 14.83C18.38 14.83 19.23 14.92 20 15.09V13.57C19.21 13.41 18.36 13.33 17.5 13.33Z"
     fill="#1D1D1D"
     id="path8268"
     inkscape:export-xdpi="96"
     inkscape:export-ydpi="96"
     style="fill:#ffffff;fill-opacity:1;stroke:#000000;stroke-opacity:1;opacity:1;stroke-width:0.2;stroke-miterlimit:4;stroke-dasharray:none" />
</svg>
